<svg width="600" height="600" xmlns="http://www.w3.org/2000/svg">
  <defs>
    <style>
      .dot { stroke-width: 0; }
      .dot-bg1 { fill: #C85050; }
      .dot-bg2 { fill: #50B450; }
      .dot-bg3 { fill: #A87033; }
      .dot-fg1 { fill: #E87A7A; }
      .dot-fg2 { fill: #7AE87A; }
    </style>
  </defs>
  
  <!-- Fondo base -->
  <rect width="600" height="600" fill="#996633"/>
  
  <!-- Patrón de puntos de fondo -->
  <g id="bg-pattern">
    <circle cx="30" cy="30" r="4" class="dot dot-bg1"/>
    <circle cx="70" cy="30" r="4" class="dot dot-bg2"/>
    <circle cx="110" cy="30" r="4" class="dot dot-bg3"/>
    <circle cx="150" cy="30" r="4" class="dot dot-bg1"/>
    <circle cx="190" cy="30" r="4" class="dot dot-bg2"/>
    <circle cx="230" cy="30" r="4" class="dot dot-bg3"/>
    <circle cx="270" cy="30" r="4" class="dot dot-bg1"/>
    <circle cx="310" cy="30" r="4" class="dot dot-bg2"/>
    <circle cx="350" cy="30" r="4" class="dot dot-bg3"/>
    <circle cx="390" cy="30" r="4" class="dot dot-bg1"/>
    <circle cx="430" cy="30" r="4" class="dot dot-bg2"/>
    <circle cx="470" cy="30" r="4" class="dot dot-bg3"/>
    <circle cx="510" cy="30" r="4" class="dot dot-bg1"/>
    <circle cx="550" cy="30" r="4" class="dot dot-bg2"/>
  </g>
  
  <!-- Repetir patrón verticalmente -->
  <use href="#bg-pattern" y="40"/>
  <use href="#bg-pattern" y="80"/>
  <use href="#bg-pattern" y="120"/>
  <use href="#bg-pattern" y="160"/>
  <use href="#bg-pattern" y="200"/>
  <use href="#bg-pattern" y="240"/>
  <use href="#bg-pattern" y="280"/>
  <use href="#bg-pattern" y="320"/>
  <use href="#bg-pattern" y="360"/>
  <use href="#bg-pattern" y="400"/>
  <use href="#bg-pattern" y="440"/>
  <use href="#bg-pattern" y="480"/>
  <use href="#bg-pattern" y="520"/>
  <use href="#bg-pattern" y="560"/>
  
  <!-- Número 5 en color visible -->
  <!-- Línea horizontal superior -->
  <line x1="220" y1="180" x2="360" y2="180" stroke="#E87A7A" stroke-width="28" stroke-linecap="round"/>
  
  <!-- Línea vertical izquierda superior -->
  <line x1="220" y1="180" x2="220" y2="280" stroke="#E87A7A" stroke-width="28" stroke-linecap="round"/>
  
  <!-- Línea horizontal media -->
  <line x1="220" y1="280" x2="360" y2="280" stroke="#7AE87A" stroke-width="28" stroke-linecap="round"/>
  
  <!-- Línea vertical derecha inferior -->
  <line x1="360" y1="280" x2="360" y2="400" stroke="#7AE87A" stroke-width="28" stroke-linecap="round"/>
  
  <!-- Línea horizontal inferior -->
  <line x1="220" y1="400" x2="360" y2="400" stroke="#E87A7A" stroke-width="28" stroke-linecap="round"/>
</svg>
