<svg width="600" height="600" xmlns="http://www.w3.org/2000/svg">
  <defs>
    <style>
      .dot { stroke-width: 0; }
      .dot-bg1 { fill: #C85050; }
      .dot-bg2 { fill: #50B450; }
      .dot-bg3 { fill: #A87033; }
      .dot-fg1 { fill: #E87A7A; }
      .dot-fg2 { fill: #7AE87A; }
    </style>
  </defs>
  
  <!-- Fondo base -->
  <rect width="600" height="600" fill="#996633"/>
  
  <!-- Patrón de puntos de fondo (simulando la placa Ishihara) -->
  <g id="bg-pattern">
    <circle cx="30" cy="30" r="4" class="dot dot-bg1"/>
    <circle cx="70" cy="30" r="4" class="dot dot-bg2"/>
    <circle cx="110" cy="30" r="4" class="dot dot-bg3"/>
    <circle cx="150" cy="30" r="4" class="dot dot-bg1"/>
    <circle cx="190" cy="30" r="4" class="dot dot-bg2"/>
    <circle cx="230" cy="30" r="4" class="dot dot-bg3"/>
    <circle cx="270" cy="30" r="4" class="dot dot-bg1"/>
    <circle cx="310" cy="30" r="4" class="dot dot-bg2"/>
    <circle cx="350" cy="30" r="4" class="dot dot-bg3"/>
    <circle cx="390" cy="30" r="4" class="dot dot-bg1"/>
    <circle cx="430" cy="30" r="4" class="dot dot-bg2"/>
    <circle cx="470" cy="30" r="4" class="dot dot-bg3"/>
    <circle cx="510" cy="30" r="4" class="dot dot-bg1"/>
    <circle cx="550" cy="30" r="4" class="dot dot-bg2"/>
  </g>
  
  <!-- Repetir patrón verticalmente -->
  <use href="#bg-pattern" y="40"/>
  <use href="#bg-pattern" y="80"/>
  <use href="#bg-pattern" y="120"/>
  <use href="#bg-pattern" y="160"/>
  <use href="#bg-pattern" y="200"/>
  <use href="#bg-pattern" y="240"/>
  <use href="#bg-pattern" y="280"/>
  <use href="#bg-pattern" y="320"/>
  <use href="#bg-pattern" y="360"/>
  <use href="#bg-pattern" y="400"/>
  <use href="#bg-pattern" y="440"/>
  <use href="#bg-pattern" y="480"/>
  <use href="#bg-pattern" y="520"/>
  <use href="#bg-pattern" y="560"/>
  
  <!-- Número 1 (lado izquierdo) en color visible -->
  <line x1="200" y1="150" x2="200" y2="450" stroke="#E87A7A" stroke-width="25" stroke-linecap="round"/>
  
  <!-- Número 2 (lado derecho) en color visible -->
  <path d="M 320 150 Q 380 150 380 200 Q 380 250 320 280 Q 380 280 380 330 Q 380 380 320 450 L 380 450" 
        fill="none" stroke="#7AE87A" stroke-width="25" stroke-linecap="round" stroke-linejoin="round"/>
  
  <!-- Textura adicional para mayor similitud -->
  <rect width="600" height="600" fill="url(#noise)" opacity="0.05"/>
  <defs>
    <pattern id="noise" patternUnits="userSpaceOnUse" width="100" height="100">
      <circle cx="10" cy="10" r="1" fill="#000000" opacity="0.3"/>
      <circle cx="50" cy="50" r="1" fill="#ffffff" opacity="0.3"/>
      <circle cx="90" cy="90" r="1" fill="#000000" opacity="0.3"/>
    </pattern>
  </defs>
</svg>
